<?xml version="1.0" encoding="utf-8"?>
<!-- Generator: Adobe Illustrator 21.1.0, SVG Export Plug-In . SVG Version: 6.00 Build 0)  -->
<svg version="1.1" id="Layer_1" xmlns="http://www.w3.org/2000/svg" xmlns:xlink="http://www.w3.org/1999/xlink" x="0px" y="0px"
	 width="197.099px" height="183.863px" viewBox="0 0 197.099 183.863" enable-background="new 0 0 197.099 183.863"
	 xml:space="preserve">
<path fill="#6D6E70" d="M32.924,76.363h-4.466l-3.875-8.833H8.146l-3.877,8.833H0l16.242-35.622h0.491L32.924,76.363z M23.11,64.194
	l-6.672-15.309l-6.77,15.309H23.11z M62.411,76.363H57.21L45.091,62.084h-4.366v14.279h-4.073V41.624h7.359
	c9.911,0,14.868,3.37,14.868,10.108c0,2.486-0.819,4.628-2.454,6.427c-1.637,1.801-3.845,2.929-6.624,3.386L62.411,76.363z
	 M54.708,51.83c0-2.42-0.914-4.163-2.739-5.225c-1.825-1.064-4.628-1.595-8.409-1.595h-2.835v13.886h3.52
	C51.218,58.895,54.708,56.54,54.708,51.83z M95.433,76.363h-5.69l-18.4-17.467v17.467H67.27V41.624h4.073v16.733l16.583-16.733
	h5.299L76.69,58.307L95.433,76.363z M128.946,76.363h-4.466l-3.875-8.833h-16.437l-3.877,8.833h-4.269l16.242-35.622h0.491
	L128.946,76.363z M119.131,64.194l-6.672-15.309l-6.77,15.309H119.131z M160.493,77.491h-0.539l-23.257-27.182v26.054h-4.023V40.496
	h0.539l23.257,27.182V41.624h4.023V77.491z M197.099,76.363h-4.466l-3.875-8.833H172.32l-3.877,8.833h-4.269l16.242-35.622h0.491
	L197.099,76.363z M187.284,64.194l-6.672-15.309l-6.77,15.309H187.284z"/>
<path fill="#E51837" d="M145.336,111.32c-15.797,24.223-31.489,48.286-47.309,72.544c-17.378-26.549-34.659-52.952-52.047-79.516
	c2.255,0.389,4.295,0.791,6.35,1.087c12.84,1.849,25.608,1.495,38.427-0.608c17.966-2.947,35.502-0.847,52.515,5.619
	C143.897,110.681,144.503,110.965,145.336,111.32z M193.617,14.126c-6.436-2.807-13.107-4.941-19.857-6.82
	c-14.428-4.016-29.129-6.423-44.095-7.088C116.34-0.373,103.07,0.194,89.898,2.451c-5.887,1.009-11.756,2.172-17.677,2.921
	C59.857,6.935,47.43,7.091,34.985,6.623c-9.232-0.347-18.392-1.286-27.478-2.95C5.535,3.311,3.566,2.93,1.596,2.557
	c1.67,0.879,3.37,1.627,5.105,2.283c16.43,6.217,33.438,9.878,50.917,11.417c16.967,1.494,33.872,0.834,50.674-1.855
	c10.477-1.677,20.947-3.295,31.555-3.87c13.681-0.742,27.311-0.222,40.872,1.723c4.648,0.667,9.256,1.604,14.181,2.47
	C194.301,14.445,193.963,14.277,193.617,14.126z"/>
</svg>
